<svg version="1.1" xmlns="http://www.w3.org/2000/svg" xmlns:xlink="http://www.w3.org/1999/xlink" style="" xml:space="preserve" width="31" height="27"><rect id="backgroundrect" width="100%" height="100%" x="0" y="0" fill="none" stroke="none"/>
















<g class="currentLayer" style=""><title>Layer 1</title><path style="" d="M21.204999923706055,5.006999969482422 c-0.42899999022483826,-0.4440000057220459 -1.1430000066757202,-0.4440000057220459 -1.5870000123977661,0 c-0.42899999022483826,0.42899999022483826 -0.42899999022483826,1.1430000066757202 0,1.5709999799728394 l8.04699993133545,8.04699993133545 H1.1109999418258667 C0.492000013589859,14.62600040435791 0,15.118000030517578 0,15.737000465393066 c0,0.6190000176429749 0.492000013589859,1.1269999742507935 1.1109999418258667,1.1269999742507935 h26.554000854492188 l-8.04699993133545,8.031999588012695 c-0.42899999022483826,0.4440000057220459 -0.42899999022483826,1.159000039100647 0,1.5870000123977661 c0.4440000057220459,0.4440000057220459 1.159000039100647,0.4440000057220459 1.5870000123977661,0 l9.95199966430664,-9.95199966430664 c0.4440000057220459,-0.42899999022483826 0.4440000057220459,-1.1430000066757202 0,-1.5709999799728394 L21.204999923706055,5.006999969482422 z" id="svg_1" class="selected" fill-opacity="1" fill="#432319"/><g id="svg_2" class="">
</g><g id="svg_3" class="">
</g><g id="svg_4" class="">
</g><g id="svg_5" class="">
</g><g id="svg_6" class="">
</g><g id="svg_7" class="">
</g><g id="svg_8" class="">
</g><g id="svg_9" class="">
</g><g id="svg_10" class="">
</g><g id="svg_11" class="">
</g><g id="svg_12" class="">
</g><g id="svg_13" class="">
</g><g id="svg_14" class="">
</g><g id="svg_15" class="">
</g><g id="svg_16" class="">
</g></g></svg>